<?xml version="1.0" standalone="no"?>
<!DOCTYPE svg PUBLIC "-//W3C//DTD SVG 20010904//EN"
 "http://www.w3.org/TR/2001/REC-SVG-20010904/DTD/svg10.dtd">
<svg version="1.0" xmlns="http://www.w3.org/2000/svg"
 width="1024.000000pt" height="1024.000000pt" viewBox="0 0 1024.000000 1024.000000"
 preserveAspectRatio="xMidYMid meet">
<metadata>
Created by potrace 1.14, written by Peter Selinger 2001-2017
</metadata>
<g transform="translate(0.000000,1024.000000) scale(0.100000,-0.100000)"
fill="#000000" stroke="none">
<path d="M4880 9163 c-19 -1 -87 -8 -150 -14 -833 -77 -1645 -450 -2244 -1029
-613 -593 -981 -1331 -1102 -2215 -28 -200 -25 -633 5 -860 86 -643 298 -1197
638 -1662 45 -62 78 -115 74 -117 -4 -3 -20 2 -36 10 -15 8 -30 12 -33 9 -3
-3 0 -5 6 -5 7 0 12 -4 12 -10 0 -8 -10 -8 -49 -1 -2 1 2 8 9 16 7 8 8 15 2
15 -13 0 -33 -25 -26 -33 3 -3 -5 -3 -18 0 -21 6 -22 5 -8 -13 8 -10 10 -16 6
-12 -5 5 -15 -1 -23 -12 -7 -10 -20 -17 -28 -14 -8 3 -21 -1 -30 -9 -20 -21
-19 -27 6 -27 11 0 18 4 15 8 -3 5 1 9 8 9 8 0 12 -6 9 -14 -3 -7 -14 -13 -24
-13 -10 0 -19 -4 -19 -9 0 -5 -9 -11 -21 -14 -12 -3 -18 -10 -15 -16 4 -5 1
-13 -5 -17 -7 -4 -9 -3 -6 3 4 6 0 13 -7 16 -8 3 -17 1 -20 -6 -2 -7 -5 -4 -5
6 -1 14 4 17 18 12 28 -9 35 12 9 26 -13 6 -20 8 -16 5 3 -4 -2 -16 -13 -27
-11 -11 -17 -25 -12 -32 4 -7 -2 -5 -12 3 -17 14 -18 13 -12 -2 4 -13 1 -16
-14 -13 -12 3 -17 0 -13 -7 5 -8 -2 -9 -24 -5 -21 4 -34 1 -43 -9 -18 -22 -21
-47 -4 -40 8 3 17 1 20 -5 4 -5 11 -6 17 -3 7 4 8 2 4 -5 -5 -7 -13 -8 -19 -4
-7 5 -32 6 -57 2 -43 -6 -43 -6 -10 -8 28 -2 31 -4 15 -10 -11 -5 -29 -5 -41
0 -18 6 -21 4 -19 -15 2 -16 -3 -22 -17 -23 -29 -3 -35 -13 -18 -26 8 -7 16
-19 18 -27 2 -11 -1 -10 -12 3 -9 12 -16 14 -21 7 -3 -5 -11 -8 -16 -5 -5 4
-9 1 -9 -4 0 -6 7 -11 16 -11 8 0 13 -4 9 -9 -3 -5 -1 -12 5 -16 5 -3 10 -2
10 3 0 5 7 9 15 9 9 0 14 -6 11 -12 -3 -9 26 -12 109 -12 69 0 112 4 108 10
-3 5 4 4 15 -2 12 -6 23 -7 26 -2 3 5 16 7 28 4 13 -4 26 0 34 12 12 16 14 16
30 0 30 -30 59 -34 243 -36 100 -1 181 -4 181 -8 0 -3 34 -5 75 -3 53 3 81 0
92 -10 12 -9 15 -9 9 -1 -5 9 -2 11 8 7 9 -3 14 -10 11 -14 -3 -5 1 -10 7 -13
7 -2 -8 -6 -34 -8 -27 -2 -48 -2 -48 1 0 7 -161 1 -180 -7 -10 -4 -1 -10 25
-19 39 -12 38 -13 -52 -14 -51 -2 -101 -3 -110 -4 -10 -1 -117 -6 -237 -10
-189 -7 -217 -10 -200 -22 10 -7 24 -17 29 -21 6 -5 20 -7 32 -5 26 4 28 -1
12 -29 -5 -11 -14 -17 -20 -14 -5 4 -9 3 -8 -2 3 -20 -2 -34 -11 -28 -6 4 -7
12 -3 18 4 7 -1 6 -10 -2 -10 -8 -27 -15 -40 -16 -12 -2 -35 -9 -52 -16 -27
-11 -38 -14 -77 -18 -6 0 -8 -4 -5 -8 4 -3 -1 -11 -10 -18 -13 -9 -13 -14 -3
-20 9 -6 11 -4 5 5 -5 9 -4 11 4 6 6 -4 9 -12 5 -17 -3 -5 -9 -7 -13 -4 -5 2
-17 -2 -27 -10 -10 -8 -14 -15 -7 -15 6 0 19 -3 29 -7 13 -5 15 -3 10 8 -4 8
-1 6 7 -4 16 -20 77 -24 77 -4 0 9 2 9 9 -1 6 -10 54 -13 202 -14 196 0 241 4
247 22 2 5 8 10 13 10 6 0 7 -6 2 -12 -4 -7 -8 -16 -8 -20 0 -3 -4 -10 -9 -15
-5 -5 -6 -3 -2 5 8 13 -10 17 -18 3 -7 -10 12 -35 39 -50 18 -11 18 -11 -5 -5
-14 4 -28 11 -31 16 -3 5 -13 6 -22 2 -10 -3 -17 -1 -17 6 0 6 5 8 12 4 7 -4
8 -3 4 4 -9 16 -51 15 -76 0 -16 -10 -24 -10 -40 -1 -15 10 -22 10 -33 -2 -8
-8 -17 -12 -19 -10 -3 3 -5 -2 -5 -10 0 -17 32 -21 42 -5 3 6 17 10 30 10 13
0 27 5 30 10 7 12 25 4 25 -11 0 -6 -4 -8 -9 -5 -14 9 -38 -3 -38 -19 0 -11 4
-12 13 -4 10 8 18 7 29 -5 16 -15 45 -12 45 6 0 5 -6 6 -12 2 -8 -4 -8 -2 1 7
9 9 15 10 18 3 2 -6 15 -9 28 -6 15 2 25 0 25 -7 0 -13 22 -10 32 4 5 6 12 5
20 -3 9 -9 9 -15 0 -24 -19 -19 -15 -26 21 -37 19 -7 34 -18 34 -26 0 -8 -3
-15 -6 -15 -290 -12 -493 -19 -591 -20 -69 -1 -136 -4 -150 -8 -22 -5 -21 -7
15 -13 22 -5 85 -8 140 -9 88 -1 219 -15 173 -19 -16 -1 -58 -46 -58 -62 0
-11 53 0 63 14 4 7 5 0 1 -16 -5 -22 -3 -26 10 -21 9 3 16 10 16 15 0 5 7 9
16 9 9 0 12 -5 8 -12 -4 -6 -3 -8 3 -5 6 4 13 0 17 -8 8 -21 105 -20 132 1 10
8 13 13 7 9 -23 -11 -53 -14 -53 -5 0 5 -10 12 -23 16 -12 4 -25 11 -29 17
-11 18 29 38 64 32 18 -3 74 -7 125 -9 99 -5 133 -16 133 -46 0 -11 12 -27 26
-36 22 -15 53 -17 216 -16 170 1 194 -1 217 -17 14 -10 37 -22 50 -26 32 -10
9 -25 -39 -25 -19 0 -43 -7 -53 -14 -16 -13 -16 -14 5 -20 13 -3 37 -6 54 -6
90 0 123 -29 48 -41 -21 -4 -12 -4 21 -1 95 8 365 12 420 5 48 -6 49 -7 20
-15 -33 -9 -73 -12 -450 -29 -392 -18 -406 -22 -180 -42 236 -21 217 -18 204
-33 -19 -24 25 -33 167 -35 76 -1 186 -8 244 -15 58 -7 142 -13 186 -14 78 0
181 -14 193 -26 9 -9 -23 -24 -54 -24 -45 0 -17 -19 33 -21 27 -2 39 -6 32
-13 -5 -5 -72 -11 -147 -14 -192 -6 -254 -19 -108 -23 96 -2 102 -3 50 -9
l-60 -6 80 -5 c44 -2 92 -1 108 3 17 4 25 3 21 -3 -3 -6 16 -8 53 -5 39 3 50
2 33 -4 -25 -8 -25 -8 4 -9 16 -1 27 -3 24 -6 -3 -3 -97 -8 -209 -11 -112 -4
-206 -8 -208 -10 -2 -2 60 -4 138 -4 86 0 151 -4 163 -11 12 -6 41 -11 65 -11
26 1 41 -3 38 -8 -3 -6 -13 -10 -21 -10 -8 0 -12 -5 -9 -10 5 -8 11 -7 20 0 8
7 19 9 25 5 19 -12 10 -21 -20 -19 -36 2 -49 -13 -24 -30 9 -7 14 -18 10 -24
-4 -7 -2 -12 3 -12 6 0 11 6 11 13 1 7 6 5 14 -6 14 -18 15 -18 25 0 10 17 10
17 11 -1 0 -16 5 -17 36 -11 26 4 34 3 29 -5 -6 -9 1 -10 24 -5 26 5 30 4 25
-9 -3 -9 -9 -16 -13 -16 -4 0 -8 -7 -8 -15 0 -13 3 -13 18 1 10 9 23 13 28 9
6 -3 17 -3 24 2 6 4 56 8 111 10 54 1 105 4 113 7 8 3 12 2 9 -3 -3 -5 14 -11
39 -13 25 -2 45 0 45 4 0 8 21 5 39 -6 10 -7 12 -6 6 4 -6 9 -4 11 4 6 7 -5
10 -15 7 -23 -4 -8 -1 -11 5 -8 6 4 8 13 5 21 -4 10 4 14 32 15 20 0 47 2 60
3 25 3 26 2 12 -25 -13 -24 -7 -24 16 -1 10 9 20 17 23 18 27 5 70 28 75 40 3
8 2 12 -3 9 -5 -3 -12 3 -15 13 -4 11 -17 19 -38 20 -46 3 -69 12 -63 23 7 11
95 12 95 1 0 -4 49 -8 109 -7 85 1 106 -1 94 -10 -13 -10 -13 -14 -3 -20 9 -5
11 -4 6 3 -5 8 4 12 26 13 27 0 30 2 13 9 -16 7 -17 9 -3 9 9 1 21 -6 26 -15
6 -11 14 -14 23 -8 8 5 22 10 32 11 17 3 17 1 3 -12 -8 -8 -21 -15 -30 -15 -8
0 -19 -7 -24 -16 -8 -15 -10 -15 -15 0 -4 10 -3 15 3 11 6 -3 10 -1 10 4 0 6
-11 11 -25 11 -14 0 -25 -4 -25 -10 0 -5 4 -10 9 -10 5 0 12 -8 15 -17 4 -10
4 -14 0 -10 -4 4 -13 2 -19 -3 -7 -6 -33 -13 -59 -16 -34 -4 -46 -2 -46 8 0 8
-9 14 -20 15 -12 1 -18 -3 -14 -8 3 -6 -3 -5 -14 2 -18 11 -24 10 -40 -4 -10
-9 -23 -17 -28 -17 -13 0 -15 -38 -3 -45 5 -4 9 -2 9 3 0 5 10 12 23 16 17 5
19 8 8 15 -9 6 -10 11 -2 15 10 6 15 -5 13 -25 -1 -4 7 -14 18 -24 15 -14 17
-22 9 -43 -6 -15 -10 -29 -11 -32 0 -3 -2 -7 -5 -10 -4 -3 -3 1 2 9 6 10 2 12
-14 6 -13 -4 -21 -2 -21 5 0 6 4 9 9 5 5 -3 8 9 7 27 -1 17 -8 34 -16 36 -7 3
-10 0 -6 -7 4 -6 3 -11 -2 -11 -6 0 -8 -9 -5 -20 3 -12 0 -20 -6 -20 -7 0 -9
-4 -6 -10 3 -6 -1 -7 -9 -4 -19 7 -20 16 -6 30 7 7 1 9 -20 6 -17 -2 -33 -9
-37 -15 -4 -6 0 -8 11 -4 11 4 19 1 23 -11 9 -24 24 -32 42 -22 8 4 27 3 43
-2 20 -7 33 -7 43 2 8 7 15 9 15 5 0 -4 8 2 18 14 9 11 26 22 37 24 33 6 55
19 49 28 -5 9 0 11 29 13 18 1 47 28 41 38 -3 4 -2 13 2 19 4 8 9 7 15 -2 7
-11 12 -12 28 -2 13 8 22 9 26 3 3 -6 1 -10 -5 -10 -6 0 -9 -4 -6 -9 4 -5 0
-12 -6 -15 -7 -4 -3 -4 10 -2 20 4 21 2 10 -12 -11 -13 -11 -15 4 -9 10 3 20
2 23 -4 4 -5 3 -9 -2 -8 -4 1 -17 1 -28 0 -16 -1 -17 -3 -5 -11 9 -6 17 -5 22
3 4 7 8 8 8 3 0 -5 6 -3 13 3 8 6 18 7 22 3 5 -4 5 -2 2 4 -9 16 13 32 38 28
10 -1 25 2 32 8 10 8 13 7 13 -3 0 -11 2 -11 9 -1 9 15 31 13 46 -5 13 -16 58
-23 76 -12 12 8 12 10 -1 19 -8 5 -22 7 -30 4 -8 -3 -21 -8 -28 -11 -7 -3 -12
0 -10 8 5 21 40 27 76 12 18 -8 38 -11 45 -7 9 5 9 3 0 -7 -7 -7 -13 -19 -13
-26 0 -13 72 -37 147 -48 48 -8 75 -31 52 -46 -8 -5 -48 -9 -89 -9 -188 -2
-225 -5 -222 -17 3 -16 -15 -17 -20 -2 -5 16 -290 21 -300 6 -5 -8 -8 -7 -8 3
0 12 -2 12 -9 1 -7 -10 -13 -11 -30 -2 -15 9 -27 9 -41 1 -24 -13 -27 -22 -3
-13 10 4 14 2 10 -4 -4 -6 4 -13 18 -15 14 -3 25 -1 25 3 0 5 14 9 30 9 17 0
30 -5 30 -12 0 -6 -3 -8 -7 -5 -3 4 -13 1 -21 -6 -13 -9 -14 -9 -8 0 4 7 4 13
1 13 -12 0 -55 -37 -49 -42 2 -3 -4 -11 -13 -19 -16 -13 -17 -12 -5 2 10 14
10 18 -1 22 -7 3 -19 -4 -25 -14 -7 -11 -9 -19 -5 -18 5 1 10 0 13 -1 20 -7
40 -7 40 2 0 6 6 6 15 -2 12 -10 16 -9 21 5 4 10 1 21 -7 26 -10 6 -8 9 11 10
14 1 33 1 43 1 11 -1 16 2 11 10 -5 7 -3 8 5 4 9 -6 8 -13 -5 -27 -9 -11 -14
-22 -11 -26 4 -3 7 -1 7 6 0 7 5 9 12 5 6 -4 8 -3 4 4 -7 11 29 28 51 24 8 -2
10 3 7 13 -3 8 -11 12 -17 8 -6 -4 -7 -1 -3 6 6 9 12 8 25 -6 10 -10 18 -23
18 -29 0 -12 -29 -14 -37 -2 -3 4 -12 3 -20 -2 -13 -8 -12 -10 3 -10 10 0 15
-5 12 -10 -4 -6 -12 -7 -18 -4 -9 5 -9 4 0 -6 9 -10 15 -10 27 3 9 9 25 14 36
12 12 -2 24 4 30 16 6 11 15 17 21 13 6 -4 5 -12 -3 -22 -12 -15 -11 -16 4 -4
9 8 15 19 12 27 -3 7 0 16 7 21 8 5 10 3 5 -7 -4 -8 -1 -6 7 4 10 12 17 15 22
7 5 -8 12 -7 25 5 15 14 19 14 29 1 11 -13 9 -15 -7 -11 -13 2 -19 -2 -18 -11
3 -22 22 -38 30 -25 4 6 4 11 0 11 -3 0 -1 7 6 15 7 8 17 12 23 8 6 -3 7 -1 3
5 -4 6 4 16 16 23 22 12 22 11 8 -7 -15 -18 -14 -18 11 -2 24 15 25 15 25 -5
-1 -12 -5 -26 -11 -30 -6 -5 -1 -6 10 -2 11 4 25 8 30 9 6 1 17 6 25 11 10 6
9 2 -3 -12 -17 -20 -17 -20 16 -18 18 0 38 5 45 9 7 4 19 3 26 -3 7 -6 22 -8
31 -4 14 5 16 3 10 -8 -5 -8 4 -2 20 14 21 21 31 25 41 16 8 -6 21 -9 29 -5
11 4 14 2 9 -6 -5 -7 0 -9 14 -6 12 4 22 2 22 -4 0 -5 6 -6 13 -1 16 10 66 11
95 1 15 -5 22 -4 22 5 0 6 5 4 11 -5 5 -10 15 -18 20 -18 6 0 7 6 3 12 -4 7 3
4 16 -7 13 -11 20 -14 16 -8 -13 23 60 19 89 -5 11 -9 17 -13 13 -8 -4 5 -3
17 3 27 7 14 6 19 -3 20 -7 0 -3 4 10 9 12 5 22 14 22 20 0 6 32 9 86 8 83 -1
88 0 110 25 13 15 21 34 18 42 -8 21 25 31 126 39 47 3 99 8 115 10 17 3 73 8
125 11 115 7 294 25 299 31 2 2 -122 3 -275 4 -248 0 -328 2 -479 10 l-40 2
30 9 c17 6 68 8 115 5 65 -3 80 -2 63 6 -13 6 -23 19 -23 30 0 14 8 18 33 19
30 0 30 1 10 11 -23 11 -39 38 -22 38 6 0 8 4 5 9 -7 11 62 18 103 10 17 -4
31 -4 31 0 0 9 123 0 136 -10 6 -5 15 -4 22 3 17 17 27 1 12 -17 -11 -13 -10
-14 4 -9 15 6 21 -6 16 -31 -1 -5 2 -7 6 -3 4 4 14 3 21 -4 8 -7 54 -13 106
-14 392 -9 383 -10 418 32 9 11 9 15 2 10 -9 -5 -11 -2 -7 7 3 10 34 19 85 27
77 12 100 22 79 35 -5 3 -10 1 -10 -5 0 -8 -6 -8 -21 0 -11 7 -23 9 -27 6 -9
-10 -62 46 -62 65 0 14 14 17 100 21 139 5 148 23 12 23 -280 1 -552 7 -602
12 -51 6 -53 7 -25 15 17 5 75 8 130 7 345 -4 602 2 617 14 18 13 34 122 20
131 -4 3 -79 6 -165 7 -86 1 -157 6 -157 11 0 9 1 9 45 13 17 1 30 3 30 4 0 3
34 7 120 16 33 3 71 9 85 12 l25 6 -25 7 c-14 4 -62 5 -108 2 -104 -6 -103 8
3 61 41 20 75 41 75 46 0 5 9 13 20 16 11 3 20 13 20 20 0 14 -30 20 -135 30
-27 2 -93 9 -145 14 -52 6 -121 11 -152 11 -33 0 -62 5 -70 13 -7 8 -20 12
-28 10 -8 -2 0 4 18 12 40 19 325 40 330 25 2 -5 10 -3 19 5 9 9 33 15 61 15
38 -1 43 -3 29 -11 -10 -6 -24 -8 -31 -6 -7 3 -19 1 -27 -5 -10 -6 2 -8 39 -5
29 2 55 0 58 -4 8 -14 84 -11 97 3 7 7 12 22 12 33 0 11 6 19 13 17 7 -1 12 5
10 15 -3 16 9 18 137 19 78 0 147 4 154 9 10 5 12 4 7 -3 -4 -7 -2 -12 3 -12
6 0 11 4 11 8 0 5 53 8 118 7 96 -1 117 -4 114 -16 -2 -11 0 -11 10 1 9 11 32
15 83 15 39 0 76 5 84 10 12 8 13 7 6 -5 -7 -12 -6 -13 6 -4 17 14 198 29 228
19 12 -3 19 -11 16 -16 -4 -5 9 -9 27 -8 18 0 27 3 20 6 -26 10 1 23 51 24 79
1 107 17 32 18 -34 1 -67 7 -74 14 -11 10 -13 9 -7 -3 5 -9 2 -8 -7 3 -16 19
-37 23 -37 6 0 -5 5 -7 12 -3 7 4 8 3 4 -4 -9 -15 -38 -3 -29 12 3 6 -3 3 -15
-8 -17 -15 -25 -16 -36 -7 -7 6 -22 8 -31 4 -13 -4 -16 -3 -11 5 4 7 3 12 -3
12 -5 0 -8 8 -6 17 1 10 9 16 16 14 19 -5 125 -2 177 5 51 8 60 22 39 63 -8
17 -12 30 -9 29 4 -1 14 1 22 5 28 10 95 14 115 6 19 -7 19 -8 -2 -8 -13 -1
-23 -4 -23 -8 0 -15 75 -44 100 -39 14 2 31 5 38 5 7 1 10 5 7 11 -4 6 48 9
144 7 164 -2 169 0 180 55 l7 33 74 3 c41 1 90 2 108 2 17 0 32 3 32 8 0 5 27
5 61 0 53 -8 64 -7 78 8 9 9 11 14 4 10 -6 -3 -14 -2 -18 4 -3 5 0 10 9 10 8
0 17 6 19 13 4 9 8 9 15 -1 8 -11 10 -11 15 1 3 8 0 20 -6 27 -9 10 -9 11 1 6
6 -4 12 -2 12 4 0 8 6 8 20 0 16 -9 19 -8 13 6 -5 13 -3 15 7 9 8 -5 11 -4 6
3 -3 5 0 13 6 15 8 4 7 6 -3 6 -9 1 -20 -6 -23 -15 -3 -8 -10 -12 -16 -9 -6 4
-7 11 -4 17 4 6 -3 5 -15 -2 -33 -17 -60 -20 -67 -8 -4 7 -2 8 4 4 7 -4 12 -1
12 6 0 9 -20 13 -72 13 -40 1 -336 2 -658 4 -395 1 -588 6 -597 13 -9 7 -13 7
-13 0 0 -6 -9 -10 -19 -9 -11 0 -17 5 -15 9 3 4 1 8 -4 8 -6 0 -8 10 -5 22 4
19 3 20 -6 8 -8 -12 -11 -12 -11 -1 0 8 -6 11 -17 7 -17 -6 -17 -5 -1 7 15 12
-4 15 -130 20 -89 4 -148 11 -150 17 -3 8 -9 7 -20 -1 -10 -6 5 9 33 33 338
296 534 518 737 833 284 440 452 902 524 1440 22 164 25 608 6 765 -81 655
-302 1224 -668 1727 -648 887 -1631 1434 -2738 1523 -118 9 -443 11 -526 3z
m579 -138 c620 -62 1167 -256 1676 -594 374 -248 725 -601 979 -984 310 -468
493 -973 557 -1537 15 -139 15 -525 0 -670 -84 -770 -438 -1473 -988 -1962
-291 -259 -673 -513 -673 -447 0 5 -4 7 -10 4 -5 -3 -10 -4 -10 -1 0 10 60 37
70 31 5 -3 14 4 20 15 9 17 7 22 -12 29 -13 5 -26 7 -30 4 -4 -2 -5 4 -1 13 5
13 3 15 -8 9 -12 -8 -12 -6 0 8 16 20 26 23 15 5 -5 -9 -2 -8 9 1 10 8 15 16
12 19 -3 3 2 17 12 31 11 18 12 23 2 15 -14 -11 -56 -24 -96 -29 -12 -2 -28
-6 -35 -10 -7 -3 -4 1 7 9 11 9 24 15 30 12 6 -2 17 5 23 15 7 10 8 19 3 19
-6 0 -13 -5 -17 -11 -3 -6 -15 -9 -25 -6 -12 3 -17 1 -12 -6 4 -7 0 -8 -11 -4
-9 4 -15 3 -12 -1 3 -4 -4 -13 -14 -20 -13 -8 -21 -8 -26 -1 -4 7 -18 0 -38
-18 l-31 -28 29 32 c16 18 32 30 36 28 9 -6 32 20 25 27 -3 3 5 13 17 24 l23
19 -20 -25 -20 -25 22 19 c13 10 21 22 18 26 -2 4 20 40 50 80 54 72 74 109
33 60 -11 -14 -25 -24 -30 -22 -5 1 -7 -2 -4 -7 3 -5 -2 -15 -11 -22 -14 -12
-16 -12 -8 1 5 8 10 21 10 30 1 8 5 31 8 50 6 31 6 32 -5 13 -6 -13 -15 -23
-20 -23 -5 0 -6 -5 -2 -12 4 -7 3 -8 -4 -4 -7 4 -12 1 -12 -8 0 -8 -4 -18 -10
-21 -12 -7 11 57 39 113 18 36 19 42 6 42 -13 0 -15 8 -11 43 3 23 8 66 11 96
3 29 8 58 11 63 3 5 1 14 -4 21 -5 7 -12 54 -14 105 -2 51 -9 97 -15 103 -8 8
-10 -3 -7 -38 3 -43 2 -44 -5 -13 -8 35 -8 34 -11 -15 l-2 -50 -12 55 c-7 30
-20 69 -29 87 -9 18 -17 38 -18 45 0 7 -11 40 -24 73 l-24 60 2 -41 c1 -23 6
-39 11 -36 5 3 6 -2 3 -12 -4 -10 -7 -23 -7 -29 0 -14 -45 53 -45 68 -1 5 -6
9 -11 8 -6 -1 -27 25 -46 57 -23 39 -38 56 -45 49 -6 -6 -21 8 -42 41 -18 27
-36 50 -40 50 -17 0 -19 -14 -6 -40 8 -15 11 -30 8 -34 -4 -3 2 -16 13 -29 10
-13 6 -10 -9 6 -15 15 -25 33 -21 39 4 6 3 8 -2 5 -6 -3 -32 12 -59 34 -28 21
-54 39 -60 39 -5 -1 -2 -7 8 -14 10 -8 19 -18 20 -23 1 -4 6 -7 10 -5 5 1 5
-3 1 -9 -4 -8 -3 -9 4 -5 6 4 24 -6 40 -21 15 -15 21 -22 12 -15 -24 18 -35
15 -19 -5 8 -10 -7 0 -33 21 -26 21 -50 46 -53 57 -4 10 -11 19 -16 19 -6 0
-7 -4 -4 -10 9 -14 -8 -12 -24 3 -11 10 -12 9 -6 -3 6 -12 5 -13 -6 -2 -18 16
-39 15 -39 -3 0 -17 -19 -12 -72 22 -21 13 -43 23 -50 23 -6 0 8 -13 33 -28
80 -51 79 -63 -3 -37 -40 13 -98 29 -128 36 -30 6 -62 14 -70 16 -13 4 -13 4
0 -7 12 -9 0 -11 -55 -7 -71 6 -71 5 5 -27 l35 -15 -60 1 c-75 2 -134 -10
-114 -23 10 -6 8 -9 -10 -9 -13 0 -21 -3 -17 -7 3 -4 28 -6 53 -4 26 1 45 -1
41 -4 -3 -3 -52 -19 -109 -35 -65 -18 -92 -29 -73 -29 46 -1 48 -12 6 -37 -20
-13 -30 -24 -22 -24 9 0 5 -6 -10 -15 -14 -8 -20 -14 -15 -15 6 0 -3 -10 -20
-21 -16 -12 -22 -18 -12 -15 43 14 35 -9 -19 -58 -32 -28 -60 -51 -63 -51 -13
-1 -31 -17 -26 -25 3 -4 -2 -13 -10 -20 -19 -16 -19 -29 0 -26 18 3 30 14 30
29 1 7 6 11 13 10 7 -2 11 3 9 10 -1 6 4 11 10 10 7 -2 12 3 10 10 -1 6 4 11
11 10 6 -2 12 1 12 5 0 5 15 18 33 31 l32 22 -25 -23 c-55 -51 -121 -159 -119
-195 0 -10 7 0 15 22 8 22 19 44 25 50 7 6 6 0 -1 -19 -9 -26 -9 -28 5 -16 13
11 15 10 12 -6 -2 -11 -7 -27 -12 -37 -4 -9 -3 -23 3 -30 5 -6 12 -32 16 -57
7 -46 57 -131 97 -165 l24 -20 -17 20 c-10 12 -24 38 -33 59 l-16 37 43 -24
c63 -37 135 -58 166 -50 25 6 24 7 -22 22 -47 16 -49 18 -67 76 -10 33 -19 76
-19 95 0 55 62 145 123 176 34 18 213 66 245 66 35 0 219 -83 255 -115 18 -16
26 -26 20 -22 -21 10 -15 -11 17 -62 47 -74 90 -195 90 -253 0 -29 -4 -49 -9
-45 -5 3 -12 -3 -14 -12 -3 -10 -5 0 -6 22 -1 22 -8 54 -15 70 -12 27 -13 22
-12 -65 1 -73 -3 -104 -17 -132 -10 -21 -22 -38 -28 -38 -6 0 -8 -3 -5 -8 2
-4 -3 -16 -11 -27 -15 -19 -15 -19 -7 5 18 60 23 98 22 150 -1 35 -2 42 -5 20
-6 -67 -25 -155 -39 -181 -16 -31 -44 -45 -56 -27 -5 9 -8 6 -8 -9 0 -12 -4
-24 -9 -28 -6 -3 -6 7 0 27 5 18 9 34 9 36 0 2 4 1 9 -2 5 -3 12 1 15 10 9 22
7 36 -2 30 -5 -3 -2 27 5 67 14 70 10 211 -5 221 -4 2 -7 -53 -8 -122 -1 -95
-5 -137 -17 -166 -10 -21 -17 -47 -17 -58 0 -12 -4 -17 -12 -12 -6 4 -8 3 -4
-4 3 -6 -2 -18 -11 -28 -10 -10 -17 -20 -15 -23 2 -3 -2 -7 -8 -9 -8 -3 -10 3
-5 19 6 22 4 21 -25 -9 -17 -17 -39 -32 -48 -32 -9 0 -32 -9 -49 -20 -18 -11
-33 -18 -33 -15 0 3 -9 -4 -20 -15 -25 -25 -98 -62 -110 -55 -5 3 -42 -3 -82
-14 -78 -21 -258 -46 -279 -39 -7 2 14 15 47 28 68 27 165 83 185 106 7 9 -27
-4 -78 -29 -164 -83 -205 -92 -408 -88 -82 2 -95 4 -75 13 84 37 171 82 182
95 7 9 -13 3 -47 -14 -87 -44 -190 -83 -217 -83 -17 0 -3 13 53 49 42 27 80
54 84 61 9 15 4 12 -75 -41 -88 -58 -115 -69 -169 -67 -38 2 -48 5 -40 15 13
15 2 36 -16 29 -7 -2 -21 2 -32 9 -10 7 -28 13 -39 12 -11 -1 -18 3 -16 11 2
10 -5 9 -27 -2 -15 -8 -31 -13 -34 -10 -3 3 -8 0 -13 -7 -4 -8 -3 -10 4 -5 7
4 12 5 12 2 0 -8 -38 -27 -62 -31 -19 -4 -18 -1 8 27 l29 31 -36 -21 c-20 -12
-39 -19 -42 -15 -11 10 3 22 19 16 9 -3 14 0 12 8 -2 9 4 13 16 11 10 -2 16 1
13 6 -4 4 3 8 15 8 13 -1 22 6 24 18 2 15 -3 17 -26 14 -32 -5 -36 17 -5 34
12 7 16 7 11 0 -10 -16 32 -2 46 16 11 13 11 15 -2 8 -8 -4 -6 -1 4 8 10 8 22
13 27 11 4 -3 11 0 15 6 5 8 3 9 -7 4 -8 -5 6 10 31 33 25 23 40 41 35 40 -6
-2 -10 2 -10 7 0 6 4 9 8 7 5 -1 6 2 2 8 -6 10 9 15 30 10 6 -1 7 1 3 5 -3 4
10 22 30 41 22 21 28 31 16 25 -11 -5 -26 -17 -33 -25 -8 -9 -18 -13 -24 -9
-5 3 -7 1 -3 -5 6 -10 -30 -28 -47 -24 -5 1 -6 -2 -2 -8 3 -6 0 -7 -10 -4 -9
4 -15 3 -14 -2 3 -18 -1 -25 -12 -19 -7 5 -4 14 7 26 9 10 14 19 9 19 -4 0 -2
7 5 15 7 9 10 18 7 22 -4 3 -1 13 6 21 11 13 9 14 -13 2 -24 -13 -25 -12 -7 7
9 11 17 25 17 31 0 7 -8 13 -17 13 -16 1 -15 2 1 6 15 4 16 7 5 14 -11 7 -10
9 4 9 10 0 16 4 12 9 -3 6 7 21 22 35 15 14 24 26 19 26 -4 0 -1 12 9 26 9 14
14 28 11 32 -3 3 -6 0 -6 -6 0 -6 -8 -9 -17 -6 -15 5 -16 4 -3 -5 13 -9 8 -15
-11 -13 -3 1 -19 -13 -35 -31 -22 -24 -23 -27 -5 -12 14 11 21 15 17 8 -3 -7
-20 -21 -36 -33 l-29 -20 5 26 c6 32 38 76 49 66 3 -4 6 -2 4 3 -3 15 12 46
21 40 4 -3 13 2 20 10 7 8 9 15 5 15 -4 0 0 12 10 26 9 15 13 24 7 20 -5 -3
-15 0 -21 8 -9 11 -9 15 1 18 7 3 13 13 13 24 0 10 6 18 13 16 8 -1 11 2 7 7
-3 6 2 22 11 36 9 14 14 28 11 32 -4 3 -9 -2 -13 -11 -3 -9 -11 -13 -17 -9 -5
3 -7 1 -4 -4 6 -10 -28 -64 -45 -71 -5 -2 -6 -8 -2 -13 3 -5 0 -9 -5 -9 -17 0
-13 9 14 41 13 16 22 36 18 44 -6 16 -34 16 -45 0 -5 -6 -12 -5 -20 3 -9 9 -9
15 0 25 7 6 18 12 25 12 7 0 12 7 13 15 1 26 16 50 27 43 5 -3 7 -2 4 3 -3 6
10 30 29 53 19 24 34 46 34 50 0 6 -95 -91 -96 -99 -3 -20 -18 -39 -27 -33 -5
3 -7 1 -4 -4 4 -6 0 -17 -9 -24 -14 -11 -15 -10 -12 7 4 26 -30 27 -59 1 -12
-11 -27 -16 -34 -12 -8 5 -10 4 -5 -3 4 -7 5 -12 1 -12 -3 0 -10 10 -15 22 -7
19 -9 20 -11 6 -3 -33 -4 -36 -11 -43 -8 -9 -3 38 6 54 4 6 11 9 15 6 12 -7
45 32 46 56 2 18 -1 17 -26 -7 -18 -17 -29 -22 -34 -14 -4 7 -19 -2 -41 -27
l-35 -38 33 46 c18 26 38 46 43 45 6 0 9 5 7 13 -2 7 6 20 17 28 13 8 18 20
14 30 -4 9 -2 14 3 10 6 -3 11 3 11 14 2 18 -1 17 -26 -8 -15 -15 -27 -32 -27
-38 1 -5 -4 -9 -11 -8 -8 2 -10 -4 -6 -14 5 -12 3 -14 -7 -8 -8 5 -11 4 -7 -2
4 -6 -10 -28 -29 -49 -20 -22 -31 -31 -24 -21 11 15 10 17 -4 11 -9 -3 -16
-13 -16 -22 0 -12 -3 -13 -11 -5 -6 6 -17 9 -24 7 -7 -3 -16 -1 -20 5 -3 6 1
14 9 17 9 3 14 10 11 14 -2 4 4 15 15 25 12 10 20 13 20 7 0 -17 17 -15 24 3
3 9 -3 19 -16 26 -15 8 -18 8 -14 0 9 -14 -7 -14 -20 -1 -7 7 -11 6 -11 -4 0
-8 5 -12 11 -9 6 4 7 2 3 -3 -5 -5 -13 -10 -18 -10 -5 -1 -14 -2 -20 -3 -5 0
-8 -5 -4 -10 8 -15 -15 -25 -28 -12 -8 8 -8 11 1 11 7 0 12 7 12 16 0 9 6 14
13 11 16 -6 21 39 5 49 -7 4 -8 3 -4 -4 4 -7 1 -12 -8 -12 -8 0 -20 8 -25 18
-8 15 -5 18 16 20 14 1 33 -4 42 -10 14 -11 14 -11 4 3 -7 9 -10 19 -6 22 3 4
-2 7 -13 7 -31 0 -67 29 -55 44 6 7 10 15 8 17 -1 2 6 -5 15 -16 9 -11 14 -24
11 -29 -3 -5 -1 -6 6 -2 6 4 8 12 5 18 -5 8 -1 9 12 4 39 -16 57 -19 50 -8 -3
6 -20 13 -36 17 -16 4 -32 11 -35 16 -4 5 1 6 9 3 11 -4 16 0 16 12 0 12 -3
15 -8 8 -8 -13 -40 -10 -56 6 -8 8 -6 9 7 5 22 -9 23 17 2 35 -9 7 -14 19 -11
27 4 9 1 12 -7 7 -9 -5 -8 -3 1 7 11 12 14 12 22 -1 5 -8 14 -16 20 -16 5 -1
14 -2 20 -3 5 0 9 -7 7 -13 -1 -7 4 -12 11 -10 7 1 26 -5 43 -14 17 -8 33 -13
36 -10 3 3 -15 15 -40 27 -25 13 -44 26 -41 30 2 4 -6 6 -19 5 -14 -2 -24 2
-24 10 0 7 5 10 11 7 6 -4 5 1 -3 10 -12 15 -11 17 3 17 9 0 16 5 16 10 0 6
-9 10 -19 10 -23 0 -34 15 -36 47 l-1 23 27 -26 c19 -19 33 -24 48 -19 12 3
21 10 21 15 0 12 -38 32 -49 26 -5 -3 -16 3 -26 14 -21 24 -13 27 9 4 15 -14
16 -14 16 0 0 9 -5 16 -11 16 -6 0 -8 7 -5 16 4 11 2 15 -8 11 -8 -3 -22 4
-32 16 -10 12 -12 17 -5 10 7 -6 20 -9 27 -6 11 4 9 13 -7 45 l-20 40 20 5
c25 6 26 16 6 33 -12 10 -13 15 -4 21 10 6 10 11 0 22 -9 11 -9 17 -1 22 6 4
9 14 5 24 -5 13 -4 14 6 4 7 -7 27 -13 43 -13 l30 0 -35 38 c-45 48 -68 78
-51 68 6 -4 12 -3 12 2 0 5 10 8 21 8 33 -1 33 34 0 64 -15 14 -20 19 -10 12
9 -7 24 -9 34 -6 15 6 16 9 3 18 -13 10 -30 41 -32 59 -1 4 -5 7 -10 6 -16 -1
-25 25 -13 40 9 11 7 17 -13 30 -14 9 -36 27 -50 41 -15 14 -19 19 -10 13 9
-7 22 -13 28 -13 7 0 12 -4 12 -8 0 -4 15 -9 33 -10 30 -1 28 1 -25 28 -72 38
-76 49 -5 15 49 -24 51 -24 23 -3 -58 46 -131 117 -118 118 6 0 12 -5 12 -12
0 -6 3 -9 6 -6 3 4 29 -5 57 -18 75 -34 93 -29 22 7 -71 36 -81 44 -64 54 7 5
10 4 6 -2 -4 -7 2 -11 16 -10 12 0 31 -3 42 -7 l20 -8 -20 16 c-11 8 -25 20
-31 25 -7 5 -15 7 -18 4 -3 -4 -6 0 -6 7 0 7 -3 10 -6 7 -4 -4 -20 3 -35 14
-23 16 -27 24 -19 38 5 10 7 21 4 24 -11 10 -11 57 -1 50 6 -4 8 0 4 10 -5 12
-1 17 13 17 11 0 20 7 20 15 0 8 4 15 8 15 13 0 83 -72 110 -112 13 -21 26
-38 29 -38 11 0 -35 69 -73 110 l-45 48 26 6 c14 4 25 13 25 21 0 34 73 -1
165 -78 l60 -51 -59 62 c-33 33 -72 66 -88 73 -15 6 -25 15 -22 20 3 5 -3 6
-13 2 -10 -3 -15 -3 -11 2 4 4 3 15 -4 22 -9 11 -9 16 1 22 7 5 12 12 12 17
-4 28 152 -3 242 -47 41 -20 42 -20 17 0 -33 26 -113 57 -189 72 -65 12 -74
21 -39 40 22 12 22 12 3 20 -11 4 -15 8 -8 8 6 1 10 12 8 26 -1 14 2 25 7 25
5 0 7 4 4 9 -7 11 58 40 126 56 44 11 48 13 21 14 -18 1 -61 -10 -97 -23 l-64
-24 -5 31 c-4 24 0 36 15 50 14 12 16 17 6 17 -8 0 -19 -5 -26 -12 -27 -27
-11 19 20 57 18 22 23 32 13 23 -11 -9 -24 -17 -30 -17 -5 -1 -10 -7 -10 -13
0 -7 -7 -13 -15 -13 -8 0 -14 7 -12 17 1 9 -2 19 -8 23 -6 3 -7 18 -3 33 6 24
5 26 -11 13 -14 -12 -16 -12 -10 3 3 9 1 23 -6 31 -7 8 -13 47 -15 87 -6 179
-19 348 -26 348 -4 0 -59 -49 -122 -110 -84 -81 -121 -110 -140 -110 -14 0
-27 5 -29 10 -4 13 -107 19 -130 8 -12 -6 -18 -5 -18 2 0 6 -5 8 -11 5 -6 -4
-22 4 -36 16 -20 18 -25 20 -20 7 9 -25 -5 -29 -37 -12 -35 18 -42 18 -27 0
11 -13 1 -14 -42 -7 -4 0 -55 46 -114 101 -59 55 -110 100 -114 100 -14 0 -40
-95 -45 -165 -4 -52 0 -94 15 -162 23 -104 26 -127 11 -118 -9 6 -14 -11 -13
-43 1 -9 -3 -10 -11 -2 -10 7 -16 3 -24 -16 -7 -14 -12 -31 -12 -39 0 -8 -5
-15 -11 -15 -5 0 -7 -4 -4 -10 3 -5 2 -10 -4 -10 -6 0 -8 -7 -5 -15 5 -11 2
-13 -11 -9 -11 5 -16 2 -15 -7 6 -36 0 -41 -37 -35 l-38 5 30 -14 c17 -8 24
-14 16 -15 -8 0 -11 -3 -7 -7 4 -5 -9 -13 -31 -20 l-38 -11 33 -1 c32 -1 42
-14 20 -27 -7 -4 -8 -3 -4 4 5 8 2 10 -8 6 -9 -3 -14 -10 -11 -14 3 -5 -5 -12
-17 -16 -22 -7 -22 -7 -3 -15 28 -11 43 -10 25 1 -13 8 -12 10 3 10 11 0 17
-5 14 -12 -2 -7 -12 -12 -21 -12 -9 1 -16 -2 -16 -7 0 -5 -6 -9 -14 -9 -8 0
-18 -4 -21 -10 -4 -6 1 -7 12 -3 16 6 16 5 4 -10 -11 -14 -11 -17 0 -17 8 0
21 5 29 10 13 9 13 10 0 10 -13 0 -13 1 0 10 8 5 20 10 25 10 6 0 3 -5 -5 -10
-13 -9 -13 -10 0 -10 23 -1 -32 -29 -57 -30 -13 0 -23 -4 -23 -9 0 -5 16 -5
37 0 21 4 39 6 42 3 2 -2 -1 -4 -8 -4 -7 0 -10 -4 -6 -9 3 -5 0 -13 -6 -17 -8
-4 -9 -3 -5 4 5 8 -1 12 -16 12 -18 0 -20 -2 -8 -10 12 -8 10 -10 -10 -11 -25
-1 -25 -1 4 -13 16 -7 24 -16 18 -20 -5 -3 -8 -15 -5 -26 3 -11 9 -18 13 -15
5 3 12 0 16 -7 4 -7 4 -10 -1 -6 -5 5 -14 -1 -22 -12 -8 -11 -22 -20 -31 -21
-14 0 -14 -2 2 -8 16 -6 11 -10 -27 -19 -52 -14 -53 -14 -32 -35 13 -13 10
-16 -23 -21 -58 -11 -73 -17 -67 -27 4 -5 17 -9 30 -9 26 0 46 -21 27 -28 -7
-2 -10 -7 -7 -12 3 -5 -4 -12 -16 -15 -12 -4 -18 -12 -15 -21 3 -8 -1 -14 -11
-14 -9 0 -13 -3 -10 -7 13 -12 -29 -32 -68 -33 -27 0 -35 -3 -26 -9 10 -6 4
-12 -23 -22 l-37 -13 33 -13 c32 -13 33 -13 3 -7 -28 5 -29 4 -11 -9 11 -8 29
-12 40 -10 19 3 19 3 -2 -6 -12 -6 -30 -8 -40 -5 -14 5 -15 4 -2 -5 8 -6 23
-11 33 -11 9 0 17 -4 17 -9 0 -16 -111 -111 -122 -105 -6 4 -8 3 -5 -3 3 -5
-8 -17 -24 -27 -17 -10 -28 -20 -25 -23 3 -3 12 0 20 6 8 7 21 9 27 5 8 -5 9
-3 4 6 -6 9 -4 11 5 5 7 -5 11 -4 8 1 -3 5 20 29 51 54 48 38 52 40 31 14 -14
-17 -27 -30 -29 -28 -9 8 -30 -19 -24 -30 3 -6 3 -8 -2 -4 -4 4 -16 -4 -27
-17 -11 -14 -24 -23 -29 -19 -5 3 -8 0 -7 -8 2 -7 -3 -12 -10 -10 -8 1 -11 -1
-8 -6 3 -5 -9 -17 -27 -27 -17 -10 -26 -20 -19 -23 7 -2 10 -7 7 -12 -7 -11
54 4 85 20 23 12 24 12 11 -3 -10 -13 -11 -17 -1 -17 9 0 7 -7 -5 -20 -10 -11
-25 -19 -34 -18 -9 2 -15 -3 -13 -11 2 -8 -3 -11 -11 -8 -13 5 -47 -15 -50
-30 -1 -4 -8 -7 -15 -6 -7 0 -11 -1 -8 -5 3 -3 -17 -20 -45 -37 -41 -27 -46
-33 -26 -31 14 0 23 4 20 9 -2 4 1 7 6 7 20 0 26 3 39 19 11 13 12 13 7 1 -4
-8 2 -4 13 10 17 21 22 22 37 10 9 -7 15 -9 14 -4 -4 21 2 34 20 44 16 8 19 7
16 -8 -1 -9 -8 -16 -15 -14 -6 1 -9 -2 -6 -7 7 -10 -18 -34 -27 -25 -3 3 -10
-4 -17 -15 -6 -12 -15 -19 -19 -16 -5 3 -12 -2 -15 -10 -3 -8 -11 -14 -18 -13
-7 2 -12 -3 -10 -11 2 -9 -3 -11 -15 -7 -9 4 -14 4 -10 0 4 -4 1 -14 -6 -22
-10 -13 -9 -15 5 -9 11 4 21 0 27 -10 7 -14 15 -10 51 28 l43 44 -22 -38 c-11
-21 -15 -35 -9 -31 9 6 9 3 -1 -9 -7 -9 -18 -14 -24 -10 -6 4 -8 0 -4 -10 4
-11 1 -17 -7 -17 -16 0 -39 -26 -42 -47 -2 -8 -10 -23 -20 -34 -9 -10 -14 -19
-9 -19 4 0 13 7 19 15 8 10 15 12 26 5 11 -7 11 -10 2 -10 -7 0 -10 -5 -6 -12
4 -6 3 -8 -4 -4 -6 3 -13 2 -17 -4 -3 -5 0 -10 7 -10 8 -1 7 -6 -5 -14 -10 -8
-17 -16 -15 -18 6 -7 -29 -47 -37 -40 -5 4 -5 2 -2 -4 4 -7 0 -17 -8 -24 -8
-7 -15 -17 -15 -22 0 -6 7 -4 17 3 9 8 19 14 22 13 3 0 14 10 24 23 10 13 22
21 27 18 5 -3 11 1 13 7 3 7 4 -1 3 -17 -3 -37 -23 -75 -38 -75 -6 0 -8 -3 -5
-6 9 -10 -12 -46 -23 -39 -6 3 -7 -1 -4 -9 3 -8 -4 -24 -15 -35 -12 -12 -22
-24 -23 -28 -2 -5 -6 -7 -10 -6 -5 2 -7 0 -7 -5 4 -21 -2 -32 -13 -26 -7 4
-10 4 -6 -1 4 -4 3 -13 -2 -20 -7 -8 -5 -12 5 -12 8 0 11 5 8 10 -4 6 0 8 10
4 16 -6 67 43 67 64 0 6 4 8 9 4 5 -3 13 0 17 6 5 8 3 9 -6 4 -9 -5 -10 -1 -6
16 7 24 7 24 -8 -1 -9 -14 -15 -20 -16 -14 0 7 9 22 20 35 10 13 19 20 20 15
0 -5 7 -3 15 4 8 7 15 8 15 2 0 -5 -7 -15 -15 -22 -17 -14 -21 -35 -5 -25 10
6 -33 -77 -51 -101 -5 -6 -6 -14 -2 -18 4 -4 17 10 30 31 27 45 29 39 7 -17
-9 -23 -21 -37 -27 -33 -5 3 -7 2 -4 -4 3 -5 0 -22 -8 -37 -10 -18 -10 -24 -2
-19 7 4 7 0 -2 -10 -7 -9 -18 -14 -25 -10 -6 3 -8 2 -3 -2 4 -5 0 -19 -8 -31
-9 -14 -11 -25 -5 -29 6 -3 10 0 10 8 0 7 12 24 27 38 20 18 24 19 13 4 -8
-11 -19 -23 -25 -27 -5 -4 -6 -8 -1 -8 5 0 1 -9 -9 -20 -10 -11 -22 -17 -27
-14 -4 3 -7 0 -6 -7 2 -7 -1 -13 -7 -14 -17 -1 -36 -16 -30 -25 3 -5 -3 -13
-12 -19 -16 -9 -16 -10 4 -8 12 0 21 6 20 12 -1 5 6 9 16 7 10 -2 16 2 15 10
-2 6 2 12 9 13 6 0 15 4 20 9 5 5 2 6 -6 1 -10 -5 -12 -4 -7 4 4 6 11 9 16 6
4 -3 11 1 13 7 3 8 6 9 6 2 1 -6 -10 -28 -24 -48 -14 -21 -21 -35 -15 -31 6 4
6 -4 -1 -19 -7 -14 -15 -23 -19 -21 -4 3 -13 -2 -20 -10 -7 -8 -9 -15 -5 -15
5 0 0 -9 -10 -20 -10 -11 -14 -20 -9 -20 15 1 40 24 47 43 4 11 12 15 18 11 8
-5 9 -2 4 7 -6 10 -5 11 4 3 9 -8 9 -18 1 -39 -9 -25 -9 -26 5 -15 8 7 15 18
15 25 0 7 8 19 17 26 9 8 14 9 10 3 -3 -6 -9 -26 -12 -45 -3 -19 -9 -43 -12
-54 -4 -11 -7 -27 -8 -35 -1 -21 -34 -80 -43 -77 -4 1 -9 -2 -11 -8 -2 -5 -12
-22 -23 -37 -11 -16 -16 -28 -11 -28 4 0 17 13 28 29 10 16 24 29 29 28 6 -1
10 3 11 10 0 7 6 18 13 25 11 11 12 9 4 -12 -19 -47 -39 -80 -46 -73 -4 4 -4
0 -1 -8 3 -9 -3 -26 -13 -39 -18 -22 -22 -23 -59 -12 -53 16 -94 15 -118 -2
-19 -13 -57 -8 -56 7 3 23 -1 28 -15 23 -8 -3 -13 -2 -10 3 3 5 -1 12 -10 15
-12 4 -14 1 -9 -13 5 -16 1 -19 -15 -18 -11 1 -20 8 -20 16 0 8 -3 12 -6 8 -4
-3 -22 5 -40 20 -30 22 -38 23 -36 2 1 -3 -6 -6 -14 -6 -35 0 -228 233 -370
444 -753 1123 -716 2656 90 3807 219 312 512 607 832 836 428 307 946 524
1494 624 116 21 201 32 390 49 107 11 474 5 609 -8z m-804 -4295 c10 -11 16
-20 13 -20 -3 0 -13 9 -23 20 -10 11 -16 20 -13 20 3 0 13 -9 23 -20z m-1546
-91 c-19 -10 -43 -18 -53 -19 -19 0 -19 0 -1 14 11 8 26 11 34 8 9 -3 12 -1 7
6 -5 8 -1 10 10 5 12 -4 15 -3 10 5 -5 8 -1 10 10 5 13 -5 10 -10 -17 -24z
m1571 -2 c12 4 12 3 1 -5 -11 -8 -11 -10 0 -15 8 -3 10 -6 4 -6 -5 0 -21 9
-35 20 -18 15 -19 18 -5 11 11 -5 27 -7 35 -5z m-1550 -121 c0 -2 -8 -10 -17
-17 -16 -13 -17 -12 -4 4 13 16 21 21 21 13z m-40 -40 c0 -2 -8 -10 -17 -17
-16 -13 -17 -12 -4 4 13 16 21 21 21 13z m-40 -20 c0 -2 -8 -10 -17 -17 -16
-13 -17 -12 -4 4 13 16 21 21 21 13z m60 0 c0 -2 -8 -10 -17 -17 -16 -13 -17
-12 -4 4 13 16 21 21 21 13z m-106 -38 c-15 -27 -27 -38 -35 -32 -5 3 1 14 13
24 27 23 32 24 22 8z m-14 -102 c0 -2 -8 -10 -17 -17 -16 -13 -17 -12 -4 4 13
16 21 21 21 13z m9 -29 c-2 -1 -13 -9 -24 -17 -19 -14 -19 -14 -6 3 7 9 18 17
24 17 6 0 8 -1 6 -3z m1706 -107 c-3 -5 -12 -10 -18 -10 -7 0 -6 4 3 10 19 12
23 12 15 0z m1935 -100 c12 -16 19 -30 16 -30 -2 0 -14 14 -26 30 -12 17 -19
30 -16 30 2 0 14 -13 26 -30z m-657 3 c-13 -2 -33 -2 -45 0 -13 2 -3 4 22 4
25 0 35 -2 23 -4z m-3022 -46 c-10 -9 -11 -8 -5 6 3 10 9 15 12 12 3 -3 0 -11
-7 -18z m-51 -87 c0 -5 -5 -10 -11 -10 -5 0 -7 5 -4 10 3 6 8 10 11 10 2 0 4
-4 4 -10z m3967 -142 c-3 -8 -6 -5 -6 6 -1 11 2 17 5 13 3 -3 4 -12 1 -19z
m-497 -55 c0 -2 -10 2 -22 9 -13 7 -27 11 -31 10 -5 -1 -6 2 -2 8 5 9 55 -15
55 -27z m-1470 23 c0 -2 -8 -10 -17 -17 -16 -13 -17 -12 -4 4 13 16 21 21 21
13z m18 -75 c-13 -15 -25 -27 -27 -25 -4 4 39 54 47 54 2 0 -7 -13 -20 -29z
m52 25 c0 -2 -8 -10 -17 -17 -16 -13 -17 -12 -4 4 13 16 21 21 21 13z m720 1
c0 -2 -10 -12 -22 -23 l-23 -19 19 23 c18 21 26 27 26 19z m-735 -57 c-10 -11
-22 -17 -28 -13 -5 3 -7 1 -4 -4 4 -6 -2 -18 -13 -28 -13 -11 -20 -14 -20 -6
0 7 -6 9 -12 5 -7 -3 3 9 22 28 34 33 60 49 69 42 2 -2 -4 -13 -14 -24z m35
-18 c0 -4 -9 -8 -21 -9 -17 -2 -18 1 -9 12 12 14 30 12 30 -3z m1500 -22 c6
-11 8 -20 6 -20 -3 0 -10 9 -16 20 -6 11 -8 20 -6 20 3 0 10 -9 16 -20z
m-1480 -4 c0 -2 -8 -10 -17 -17 -16 -13 -17 -12 -4 4 13 16 21 21 21 13z m-74
-21 c-1 -8 -5 -17 -8 -21 -5 -4 -4 16 1 34 3 9 9 -1 7 -13z m103 -81 c-12 -13
-25 -22 -27 -19 -3 3 -11 -3 -19 -13 -19 -22 -6 4 19 40 12 17 24 25 34 21 13
-5 11 -9 -7 -29z m-2119 -164 c-6 -11 -13 -20 -16 -20 -2 0 0 9 6 20 6 11 13
20 16 20 2 0 0 -9 -6 -20z m7 -45 c0 -8 -4 -12 -9 -8 -6 3 -9 -3 -8 -13 4 -33
0 -44 -12 -41 -7 1 -13 -7 -13 -18 0 -11 -4 -18 -10 -15 -5 3 -8 13 -7 24 3
13 0 16 -10 10 -8 -4 -10 -3 -5 2 5 5 14 9 20 9 7 0 12 10 11 22 0 12 3 20 8
17 4 -3 11 2 14 10 8 20 21 21 21 1z m-87 -95 c-6 -11 -13 -20 -16 -20 -2 0 0
9 6 20 6 11 13 20 16 20 2 0 0 -9 -6 -20z m2140 -24 c0 -2 -8 -10 -17 -17 -16
-13 -17 -12 -4 4 13 16 21 21 21 13z m-3074 -60 c1 -7 -4 -13 -11 -13 -7 0
-11 7 -10 16 2 9 4 18 4 20 2 8 15 -10 17 -23z m3102 -15 c-13 -8 -30 -16 -38
-16 -8 0 -15 -6 -15 -13 0 -15 -26 -33 -37 -26 -14 9 2 24 18 17 8 -3 14 -1
12 6 -4 15 54 60 70 54 9 -4 6 -10 -10 -22z m-3218 -26 c0 -2 -10 -9 -22 -15
-22 -11 -22 -10 -4 4 21 17 26 19 26 11z m-96 -21 c4 -9 4 -19 1 -22 -3 -3 -5
0 -5 7 0 8 -7 11 -15 7 -15 -5 -20 5 -8 17 11 11 21 8 27 -9z m4776 -8 c0 -2
-8 -10 -17 -17 -16 -13 -17 -12 -4 4 13 16 21 21 21 13z m-4210 -61 c0 -5 4
-4 8 3 7 9 15 10 35 3 39 -15 34 -19 -23 -19 -28 -1 -54 -3 -58 -6 -4 -2 -8 3
-9 12 -1 12 6 17 23 17 13 0 24 -4 24 -10z m-60 -4 c0 -13 -30 -22 -58 -16
-12 2 -22 -1 -22 -6 0 -6 -4 -7 -10 -4 -5 3 -10 11 -10 17 0 6 3 9 6 6 3 -3
17 -2 32 2 38 11 62 12 62 1z m4840 -15 c0 -2 -8 -10 -17 -17 -16 -13 -17 -12
-4 4 13 16 21 21 21 13z m-60 -52 c0 -8 -19 -13 -24 -6 -3 5 1 9 9 9 8 0 15
-2 15 -3z m-2006 -25 c-3 -5 -10 -7 -15 -3 -5 3 -7 10 -3 15 3 5 10 7 15 3 5
-3 7 -10 3 -15z m-3384 -3 c-7 -7 -13 -7 -20 0 -6 6 -3 10 10 10 13 0 16 -4
10 -10z m3426 5 c-4 -5 -3 -11 1 -14 5 -2 2 -2 -6 0 -8 2 -21 -2 -30 -9 -10
-7 -6 -3 7 10 24 23 38 29 28 13z m1974 -46 c-7 -8 -17 -15 -23 -15 -6 0 -2 7
9 15 25 19 30 19 14 0z m-1075 -25 c-22 -10 -47 -19 -55 -19 -8 0 5 9 30 19
58 24 77 24 25 0z m1780 -80 c-3 -5 -13 -10 -21 -10 -8 0 -12 5 -9 10 3 6 13
10 21 10 8 0 12 -4 9 -10z m-5878 -66 c-3 -3 -12 -4 -19 -1 -8 3 -5 6 6 6 11
1 17 -2 13 -5z m25 -11 c-6 -2 -10 -9 -7 -13 3 -5 1 -11 -5 -15 -5 -3 -10 0
-10 8 0 17 10 27 24 26 6 0 5 -3 -2 -6z m-38 -27 c-4 -11 -13 -15 -26 -10 -14
4 -18 2 -14 -5 4 -6 5 -11 2 -11 -19 0 -12 22 11 34 32 16 36 15 27 -8z m6379
-52 c-4 -11 -9 -12 -19 -3 -20 16 -17 28 5 22 12 -3 17 -11 14 -19z m40 -9 c0
-6 -7 -11 -16 -13 -12 -3 -15 1 -11 13 7 17 25 17 27 0z m56 2 c14 4 14 3 1
-6 -13 -9 -13 -11 2 -11 9 0 20 5 24 11 4 8 9 7 14 -2 7 -10 12 -10 25 1 15
12 19 12 31 -5 8 -10 13 -20 11 -21 -1 -1 -38 1 -82 6 -44 4 -72 8 -61 9 16 1
17 3 5 19 -11 14 -11 15 0 5 7 -6 21 -9 30 -6z m116 3 c-4 -6 6 -11 22 -11 17
-1 21 -3 11 -6 -10 -2 -18 -10 -18 -16 0 -7 -7 -3 -15 7 -13 17 -12 36 1 36 3
0 2 -4 -1 -10z m-6368 -36 c-3 -3 -12 -4 -19 -1 -8 3 -5 6 6 6 11 1 17 -2 13
-5z m58 -14 c3 -6 -1 -7 -9 -4 -18 7 -21 14 -7 14 6 0 13 -4 16 -10z m6143
-24 c33 2 54 -11 24 -15 -36 -5 -122 -4 -128 2 -14 14 8 24 38 18 18 -4 48 -7
66 -5z m-6058 -11 c0 -8 -4 -15 -9 -15 -13 0 -22 16 -14 24 11 11 23 6 23 -9z
m-58 -17 c-7 -7 -12 -8 -12 -2 0 6 3 14 7 17 3 4 9 5 12 2 2 -3 -1 -11 -7 -17z
m158 -28 c5 0 12 5 15 10 11 18 23 10 23 -15 0 -25 -4 -27 -46 -28 -21 0 -21
-1 -7 -17 22 -24 20 -27 -29 -26 -25 0 -43 3 -40 7 2 4 -3 10 -12 13 -9 4 -15
9 -12 12 3 2 17 0 31 -5 15 -6 28 -7 31 -3 3 4 -5 9 -16 9 -11 1 -27 11 -35
23 -14 19 -40 19 -28 -1 4 -5 -2 -9 -11 -9 -16 0 -16 1 1 20 10 11 26 20 36
20 10 0 21 5 24 10 4 6 15 8 25 5 10 -3 22 0 27 7 6 9 9 7 11 -9 2 -13 7 -23
12 -23z m4678 -94 c3 -3 -14 -6 -37 -6 -24 0 -40 4 -36 9 6 10 62 7 73 -3z
m95 7 c-13 -2 -33 -2 -45 0 -13 2 -3 4 22 4 25 0 35 -2 23 -4z m-4643 -16 c-3
-3 -45 -7 -95 -10 -49 -4 -79 -3 -65 2 27 8 168 15 160 8z m-47 -34 c-23 -2
-64 -2 -90 0 -26 2 -7 3 42 3 50 0 71 -1 48 -3z m4740 -80 c-7 -2 -21 -2 -30
0 -10 3 -4 5 12 5 17 0 24 -2 18 -5z m-594 -38 c2 -3 -6 -5 -18 -5 -14 0 -20
-4 -15 -12 5 -8 -5 -9 -37 -5 -24 3 -45 11 -47 16 -2 6 -9 8 -14 5 -7 -4 -8
-2 -4 5 5 8 27 10 69 6 34 -3 63 -8 66 -10z m-4636 -12 c-3 -8 -9 -10 -12 -5
-3 5 -16 8 -28 7 -12 -1 -20 1 -18 5 2 4 18 7 34 8 23 0 28 -3 24 -15z m870
-90 c-3 -8 2 -13 13 -14 13 0 14 -2 6 -6 -14 -5 -62 15 -62 27 0 3 11 6 24 6
15 0 22 -5 19 -13z m373 8 c-4 -5 0 -12 6 -14 7 -3 3 -6 -9 -6 -25 -1 -31 14
-10 22 18 8 19 8 13 -2z m464 -16 c0 -1 -10 -5 -23 -7 -14 -3 -24 0 -24 7 0 7
10 10 24 7 13 -2 23 -6 23 -7z m-523 -9 c0 -8 -6 -12 -15 -8 -8 3 -20 -2 -27
-11 -9 -12 -24 -16 -52 -14 -31 2 -40 0 -39 -12 1 -16 -59 -27 -68 -12 -3 4
11 7 31 5 l37 -3 -33 21 c-23 15 -29 23 -20 29 7 4 16 6 19 4 15 -9 71 -15 66
-7 -3 5 1 9 9 9 8 0 11 -5 8 -11 -4 -6 1 -5 10 3 9 7 17 11 17 8 0 -4 51 7 56
12 0 1 1 -5 1 -13z m416 7 c-7 -2 -19 -2 -25 0 -7 3 -2 5 12 5 14 0 19 -2 13
-5z m-623 -12 c0 -6 -4 -12 -8 -15 -5 -3 -9 1 -9 9 0 8 4 15 9 15 4 0 8 -4 8
-9z m240 -19 c0 -5 -7 -9 -15 -9 -8 0 -12 4 -9 9 3 4 9 8 15 8 5 0 9 -4 9 -8z
m-37 -16 c4 -10 0 -12 -15 -8 -15 4 -17 7 -6 13 17 11 15 11 21 -5z m220 -83
c-7 -2 -19 -2 -25 0 -7 3 -2 5 12 5 14 0 19 -2 13 -5z m3537 -43 c0 -5 -5 -10
-11 -10 -5 0 -7 5 -4 10 3 6 8 10 11 10 2 0 4 -4 4 -10z m-2987 -37 c-7 -2
-21 -2 -30 0 -10 3 -4 5 12 5 17 0 24 -2 18 -5z m-846 -29 c-3 -3 -12 -4 -19
-1 -8 3 -5 6 6 6 11 1 17 -2 13 -5z m3941 -27 c8 -10 6 -13 -7 -13 -10 0 -18
6 -18 13 0 7 4 13 7 13 4 0 12 -6 18 -13z m-2361 -83 c-3 -3 -12 -4 -19 -1 -8
3 -5 6 6 6 11 1 17 -2 13 -5z m-47 -19 c0 -2 -6 -5 -13 -8 -8 -3 -14 1 -14 8
0 7 6 11 14 8 7 -3 13 -6 13 -8z m-295 -5 c-3 -5 -12 -10 -18 -10 -7 0 -6 4 3
10 19 12 23 12 15 0z m345 -10 c-12 -11 -27 -17 -31 -14 -5 3 -9 1 -9 -3 0 -5
14 -14 32 -21 17 -6 29 -15 25 -19 -4 -4 -13 -1 -19 5 -7 7 -20 12 -29 12 -38
0 -24 42 17 53 35 9 37 7 14 -13z m1383 13 c-7 -2 -21 -2 -30 0 -10 3 -4 5 12
5 17 0 24 -2 18 -5z m-1643 -8 c0 -2 -9 -9 -20 -15 -12 -6 -20 -7 -20 -1 0 5
8 12 18 14 9 3 18 5 20 6 1 0 2 -1 2 -4z m168 -12 c-2 -10 -7 -21 -11 -24 -11
-8 -57 1 -57 12 0 13 24 11 39 -3 11 -11 12 -10 6 1 -4 8 -2 17 6 22 19 12 20
11 17 -8z m-770 0 c-10 -2 -28 -2 -40 0 -13 2 -5 4 17 4 22 1 32 -1 23 -4z
m662 -6 c0 -8 -6 -14 -14 -14 -8 0 -12 6 -9 14 3 7 9 13 14 13 5 0 9 -6 9 -13z
m290 -43 c0 -2 -7 -4 -15 -4 -8 0 -15 4 -15 10 0 5 7 7 15 4 8 -4 15 -8 15
-10z m-830 -17 c-7 -7 -78 -12 -84 -6 -3 3 16 6 41 8 26 1 45 0 43 -2z m690
-28 c0 -5 8 -9 18 -9 14 0 15 2 2 10 -8 5 -10 10 -4 10 6 0 14 -3 18 -7 4 -5
12 -8 18 -8 6 0 12 -8 14 -17 2 -15 -5 -18 -34 -17 -33 1 -35 2 -12 9 24 8 23
8 -8 9 -20 1 -31 -3 -27 -9 9 -14 -18 -12 -34 3 -11 10 -12 9 -6 -2 5 -8 4
-12 -2 -8 -19 12 -137 7 -165 -8 -7 -3 -5 0 5 9 11 8 25 12 32 9 8 -2 22 0 32
6 13 7 14 10 4 11 -8 0 -12 3 -9 6 3 3 16 -1 27 -8 18 -11 23 -11 30 0 5 9 20
11 51 6 30 -5 41 -4 36 4 -4 6 -14 9 -24 6 -14 -5 -14 -4 -3 4 15 11 41 5 41
-9z m160 0 c0 -5 -6 -9 -13 -9 -7 0 -18 -5 -25 -12 -14 -14 -45 -20 -37 -8 3
5 1 11 -5 15 -14 9 -12 28 3 22 6 -2 21 -1 32 3 22 8 45 3 45 -11z m-990 -39
c13 -8 13 -11 1 -22 -10 -10 -12 -10 -7 0 5 8 0 12 -14 12 -12 0 -18 5 -15 10
8 12 16 12 35 0z m2650 -14 c0 -3 -4 -8 -10 -11 -5 -3 -10 -1 -10 4 0 6 5 11
10 11 6 0 10 -2 10 -4z m23 -41 c-7 -21 -13 -19 -13 6 0 11 4 18 10 14 5 -3 7
-12 3 -20z m-1579 -15 c-6 -6 -10 -3 -10 10 0 13 4 16 10 10 7 -7 7 -13 0 -20z
m-1027 4 c0 -10 -10 -11 -35 -5 -2 1 -1 5 2 9 8 13 33 10 33 -4z m28 -4 c-3
-4 0 -11 5 -13 6 -3 5 -4 -1 -3 -7 1 -13 10 -15 19 -1 9 2 15 7 11 5 -3 7 -9
4 -14z m945 -14 c0 -11 -19 -15 -25 -6 -3 5 1 10 9 10 9 0 16 -2 16 -4z m142
-31 c-3 -5 -7 -4 -10 3 -2 7 -8 10 -12 7 -5 -3 -12 0 -16 6 -4 8 -3 9 4 5 7
-4 12 -2 12 4 0 7 5 6 14 -2 8 -7 11 -17 8 -23z m73 15 c-3 -5 -14 -10 -23 -9
-14 0 -13 2 3 9 27 11 27 11 20 0z m-120 -10 c3 -6 -1 -7 -9 -4 -18 7 -21 14
-7 14 6 0 13 -4 16 -10z m215 -50 c0 -5 -2 -10 -4 -10 -3 0 -8 5 -11 10 -3 6
-1 10 4 10 6 0 11 -4 11 -10z m-508 -55 c-9 -13 -19 -19 -21 -13 -2 6 1 13 6
17 6 3 9 14 7 24 -2 14 0 16 12 7 11 -10 11 -16 -4 -35z m73 24 c-4 -5 -12 -9
-18 -8 -9 0 -8 2 1 6 6 2 9 10 6 15 -4 7 -2 8 5 4 6 -4 9 -12 6 -17z m0 -109
c3 -5 1 -10 -4 -10 -6 0 -11 5 -11 10 0 6 2 10 4 10 3 0 8 -4 11 -10z m132 4
c-3 -3 -12 -4 -19 -1 -8 3 -5 6 6 6 11 1 17 -2 13 -5z m487 -29 c3 -8 1 -15
-4 -15 -6 0 -10 7 -10 15 0 8 2 15 4 15 2 0 6 -7 10 -15z m-277 -20 c0 -8 -4
-12 -9 -9 -5 3 -6 10 -3 15 9 13 12 11 12 -6z"/>
<path d="M4586 5005 c10 -8 23 -15 28 -15 6 0 1 7 -10 15 -10 8 -23 15 -28 15
-6 0 -1 -7 10 -15z"/>
<path d="M2825 4720 c-3 -5 -1 -10 4 -10 6 0 11 5 11 10 0 6 -2 10 -4 10 -3 0
-8 -4 -11 -10z"/>
<path d="M5363 4613 c-15 -6 -17 -49 -3 -58 20 -12 50 6 50 30 0 18 -21 40
-33 34 -1 0 -8 -3 -14 -6z"/>
<path d="M2550 4306 c0 -9 7 -16 16 -16 9 0 14 5 12 12 -6 18 -28 21 -28 4z"/>
<path d="M5050 4240 c0 -5 5 -10 10 -10 6 0 10 5 10 10 0 6 -4 10 -10 10 -5 0
-10 -4 -10 -10z"/>
<path d="M2949 4138 c-4 -17 -3 -56 2 -52 12 7 17 44 8 50 -5 3 -9 4 -10 2z"/>
<path d="M6300 4116 c0 -2 7 -7 16 -10 8 -3 12 -2 9 4 -6 10 -25 14 -25 6z"/>
<path d="M2780 4056 c0 -9 5 -16 10 -16 6 0 10 4 10 9 0 6 -4 13 -10 16 -5 3
-10 -1 -10 -9z"/>
<path d="M5210 4060 c0 -5 5 -10 10 -10 6 0 10 5 10 10 0 6 -4 10 -10 10 -5 0
-10 -4 -10 -10z"/>
<path d="M2641 3912 c-20 -38 31 -71 58 -38 9 11 10 20 1 35 -13 26 -46 27
-59 3z"/>
<path d="M4781 3781 c-8 -6 -9 -11 -3 -15 6 -3 14 -1 17 5 9 14 2 20 -14 10z"/>
<path d="M5310 3530 c0 -5 5 -10 11 -10 5 0 7 5 4 10 -3 6 -8 10 -11 10 -2 0
-4 -4 -4 -10z"/>
<path d="M5307 3363 c-15 -14 -7 -43 12 -43 26 0 36 17 21 35 -14 16 -23 19
-33 8z"/>
<path d="M7011 3294 c0 -11 3 -14 6 -6 3 7 2 16 -1 19 -3 4 -6 -2 -5 -13z"/>
<path d="M5030 3528 c-12 -22 -12 -22 6 -6 10 10 15 20 12 24 -4 3 -12 -5 -18
-18z"/>
<path d="M4999 3123 c-13 -16 -12 -17 4 -4 9 7 17 15 17 17 0 8 -8 3 -21 -13z"/>
<path d="M1920 3291 c0 -6 4 -13 10 -16 6 -3 7 1 4 9 -7 18 -14 21 -14 7z"/>
<path d="M1915 3249 c-18 -7 -18 -8 -2 -8 12 -1 16 -6 11 -13 -5 -10 -4 -10 6
-1 18 17 8 32 -15 22z"/>
<path d="M1838 3203 c6 -2 9 -10 6 -15 -4 -7 -2 -8 4 -4 18 11 14 26 -5 25
-11 0 -13 -3 -5 -6z"/>
<path d="M1855 3170 c-3 -5 -1 -10 4 -10 6 0 11 5 11 10 0 6 -2 10 -4 10 -3 0
-8 -4 -11 -10z"/>
<path d="M9656 2854 c-9 -8 -16 -11 -16 -5 0 6 -5 11 -11 11 -6 0 -8 -7 -5
-16 6 -15 4 -15 -11 -3 -12 10 -15 10 -9 1 4 -7 2 -19 -4 -27 -9 -11 -9 -15
-1 -15 6 0 11 5 11 10 0 6 9 10 20 10 13 0 20 -7 20 -19 0 -16 18 -31 36 -31
14 0 1 30 -13 31 -15 0 -15 2 -3 7 8 4 16 13 18 21 3 12 0 12 -12 1 -20 -16
-21 -6 -1 14 8 8 11 17 6 20 -5 4 -17 -1 -25 -10z"/>
<path d="M9291 2844 c0 -11 3 -14 6 -6 3 7 2 16 -1 19 -3 4 -6 -2 -5 -13z"/>
<path d="M9331 2841 c-8 -15 -7 -20 5 -25 19 -7 34 1 34 17 0 8 -3 8 -9 -2 -7
-10 -10 -10 -16 -1 -4 7 -1 16 6 21 10 6 10 9 2 9 -7 0 -17 -9 -22 -19z"/>
<path d="M9385 2850 c-8 -13 5 -13 25 0 13 8 13 10 -2 10 -9 0 -20 -4 -23 -10z"/>
<path d="M9478 2853 c7 -3 16 -2 19 1 4 3 -2 6 -13 5 -11 0 -14 -3 -6 -6z"/>
<path d="M9506 2843 c-6 -14 -5 -15 5 -6 7 7 10 15 7 18 -3 3 -9 -2 -12 -12z"/>
<path d="M9536 2851 c2 -2 -1 -10 -6 -16 -8 -9 -4 -12 15 -12 14 0 25 5 25 12
0 8 6 15 13 18 6 2 -2 4 -20 3 -17 0 -30 -3 -27 -5z"/>
<path d="M9789 2853 c-1 -16 -7 -38 -14 -55 -5 -14 -2 -18 14 -18 12 0 21 6
21 14 0 8 9 18 20 21 11 3 20 15 20 26 0 21 -25 26 -33 7 -4 -10 -6 -10 -6 0
-1 13 -20 17 -22 5z"/>
<path d="M9910 2851 c0 -5 -3 -16 -6 -24 -4 -11 4 -16 30 -19 22 -2 37 1 40 8
3 8 -3 10 -16 6 -16 -4 -19 -2 -13 8 6 10 4 12 -9 7 -14 -5 -17 -3 -12 8 3 8
1 15 -4 15 -6 0 -10 -4 -10 -9z"/>
<path d="M9260 2840 c0 -5 5 -10 11 -10 5 0 7 5 4 10 -3 6 -8 10 -11 10 -2 0
-4 -4 -4 -10z"/>
<path d="M9735 2820 c3 -5 12 -7 20 -3 21 7 19 13 -6 13 -11 0 -18 -4 -14 -10z"/>
<path d="M7910 2780 c-9 -6 -10 -10 -3 -10 6 0 15 5 18 10 8 12 4 12 -15 0z"/>
<path d="M1684 2688 c-5 -8 -2 -9 11 -5 9 4 25 2 34 -5 14 -12 14 -11 2 5 -16
20 -37 22 -47 5z"/>
<path d="M9545 2680 c-3 -6 1 -7 9 -4 18 7 21 14 7 14 -6 0 -13 -4 -16 -10z"/>
<path d="M9308 2646 c-20 -15 -24 -36 -7 -36 5 0 7 5 4 10 -3 6 -2 10 4 10 5
0 11 -3 14 -7 2 -5 2 -2 0 6 -2 8 2 18 9 23 7 4 9 8 3 8 -5 -1 -18 -7 -27 -14z"/>
<path d="M9611 2647 c-9 -11 -3 -14 28 -15 53 -2 73 22 21 26 -22 1 -42 -3
-49 -11z"/>
<path d="M1459 2548 c11 -15 41 -15 41 -1 0 3 -6 3 -14 0 -7 -3 -20 0 -27 6
-11 10 -11 9 0 -5z"/>
<path d="M1850 2462 c0 -6 -6 -9 -13 -6 -8 3 -19 -1 -25 -9 -9 -11 -8 -14 3
-14 8 0 15 4 15 9 0 5 4 7 9 3 11 -6 26 13 17 22 -3 4 -6 1 -6 -5z"/>
<path d="M1728 2433 c12 -2 32 -2 45 0 12 2 2 4 -23 4 -25 0 -35 -2 -22 -4z"/>
<path d="M1908 2413 c7 -3 16 -2 19 1 4 3 -2 6 -13 5 -11 0 -14 -3 -6 -6z"/>
<path d="M8378 2393 c7 -3 16 -2 19 1 4 3 -2 6 -13 5 -11 0 -14 -3 -6 -6z"/>
<path d="M8554 2386 c-4 -11 -12 -13 -30 -6 -15 6 -24 6 -24 0 0 -6 9 -10 20
-10 11 0 20 -4 20 -9 0 -5 20 -1 45 8 34 12 41 17 27 23 -29 11 -52 9 -58 -6z"/>
<path d="M7236 2292 c-2 -4 4 -8 14 -8 10 0 16 4 14 8 -3 4 -9 8 -14 8 -5 0
-11 -4 -14 -8z"/>
<path d="M7452 2295 c4 -4 3 -14 -3 -22 -7 -8 -8 -13 -1 -13 15 0 23 28 9 36
-7 4 -9 4 -5 -1z"/>
<path d="M7670 2277 c-14 -7 -30 -28 -36 -47 -10 -30 -9 -36 5 -42 9 -4 12 -7
6 -8 -5 -1 1 -5 15 -9 14 -5 31 -3 39 3 12 9 13 8 7 -2 -7 -11 -4 -12 11 -3
11 6 24 7 29 3 5 -4 2 1 -5 11 -12 15 -12 17 4 11 14 -6 16 -4 11 7 -4 8 -1 6
7 -3 8 -10 23 -18 33 -18 16 0 17 2 4 11 -12 8 -8 9 15 7 17 -1 36 2 44 6 10
7 12 5 6 -5 -8 -12 -6 -12 8 0 12 9 17 10 17 2 0 -7 4 -10 9 -6 5 3 13 1 16
-5 5 -8 11 -8 19 -1 7 6 16 8 19 4 4 -3 7 -2 7 4 0 6 10 9 23 9 12 -1 34 4 49
11 15 7 33 13 40 12 7 0 1 -5 -14 -11 -16 -5 -28 -14 -28 -18 0 -10 64 15 95
36 19 14 19 14 -1 14 -11 0 -24 3 -28 7 -9 10 -36 15 -66 13 -14 -1 -32 -1
-40 0 -8 1 -64 2 -125 3 -60 1 -116 6 -124 11 -9 6 -12 5 -8 -1 8 -13 -20 -26
-36 -16 -7 4 -3 9 9 14 13 5 14 8 4 8 -8 0 -26 -5 -40 -12z m340 -57 c0 -5 -2
-10 -4 -10 -3 0 -8 5 -11 10 -3 6 -1 10 4 10 6 0 11 -4 11 -10z m-60 -5 c0 -2
-6 -8 -13 -14 -10 -8 -14 -7 -14 2 0 8 6 14 14 14 7 0 13 -1 13 -2z"/>
<path d="M7387 2270 c6 -7 9 -20 6 -29 -4 -12 -3 -13 5 -3 5 8 13 14 17 14 4
0 12 -6 16 -14 5 -7 9 -8 9 -3 0 12 -20 44 -20 32 0 -4 -10 -2 -22 4 -18 9
-21 9 -11 -1z"/>
<path d="M7500 2260 c-8 -5 -10 -10 -5 -10 6 0 3 -5 -5 -10 -9 -6 -10 -10 -3
-10 7 0 17 9 23 20 12 23 11 24 -10 10z"/>
<path d="M7538 2258 c-9 -5 -5 -8 12 -9 22 0 23 -1 6 -8 -13 -5 -16 -10 -9
-14 11 -7 26 8 29 29 2 13 -20 14 -38 2z"/>
<path d="M7603 2263 c-15 -6 -17 -33 -3 -33 5 0 7 -8 4 -17 -5 -15 -4 -15 4
-3 6 8 9 17 6 21 -2 4 0 10 6 14 23 15 10 29 -17 18z"/>
<path d="M2376 2104 c-11 -8 -16 -14 -10 -14 13 0 39 18 34 24 -3 2 -14 -2
-24 -10z"/>
<path d="M2390 2070 c20 -13 33 -13 25 0 -3 6 -14 10 -23 10 -15 0 -15 -2 -2
-10z"/>
<path d="M2330 2059 c0 -5 5 -7 10 -4 6 3 10 8 10 11 0 2 -4 4 -10 4 -5 0 -10
-5 -10 -11z"/>
<path d="M2364 2044 c0 -13 7 -24 14 -24 7 0 10 5 7 10 -3 6 -1 10 4 10 18 0
12 17 -8 23 -15 3 -18 -1 -17 -19z"/>
<path d="M2514 2029 c-7 -11 57 -11 74 0 9 5 -1 8 -27 8 -23 0 -44 -4 -47 -8z"/>
<path d="M4545 1520 c-3 -5 1 -10 9 -10 9 0 16 5 16 10 0 6 -4 10 -9 10 -6 0
-13 -4 -16 -10z"/>
<path d="M4576 1501 c-17 -6 -17 -8 -4 -14 10 -3 19 0 22 9 3 8 4 14 3 13 -1
0 -11 -4 -21 -8z"/>
<path d="M3715 1441 c-3 -6 5 -15 17 -21 21 -10 21 -10 6 3 -10 8 -15 17 -11
20 3 4 4 7 0 7 -3 0 -8 -4 -12 -9z"/>
<path d="M4356 1431 c9 -9 34 -9 34 -1 0 5 -9 8 -20 7 -10 -1 -17 -3 -14 -6z"/>
<path d="M4456 1410 c6 -8 10 -23 8 -33 -1 -11 0 -16 4 -13 12 13 10 36 -6 48
-15 11 -15 11 -6 -2z"/>
<path d="M4843 1403 c0 -9 4 -10 14 -2 7 6 13 12 13 14 0 1 -6 2 -13 2 -8 0
-14 -6 -14 -14z"/>
<path d="M4370 1390 c-8 -5 -10 -10 -5 -10 6 0 17 5 25 10 8 5 11 10 5 10 -5
0 -17 -5 -25 -10z"/>
<path d="M4642 1388 c5 -15 28 -23 28 -10 0 5 -7 13 -16 16 -10 4 -14 1 -12
-6z"/>
<path d="M4308 1358 c-17 -21 -16 -38 2 -38 5 0 6 7 3 17 -4 9 -2 14 3 10 6
-3 11 3 11 14 2 24 2 24 -19 -3z"/>
<path d="M4835 1370 c-3 -5 -1 -10 4 -10 6 0 11 5 11 10 0 6 -2 10 -4 10 -3 0
-8 -4 -11 -10z"/>
<path d="M4885 1220 c-4 -6 -11 -7 -17 -4 -7 4 -8 2 -4 -5 6 -9 11 -9 22 0 14
11 18 19 10 19 -3 0 -8 -5 -11 -10z"/>
<path d="M5568 1208 c5 -5 16 -8 23 -6 8 3 3 7 -10 11 -17 4 -21 3 -13 -5z"/>
</g>
</svg>
